<?xml version="1.0" encoding="UTF-8"?>
<svg id="Capa_1" data-name="Capa 1" xmlns="http://www.w3.org/2000/svg" xmlns:xlink="http://www.w3.org/1999/xlink" viewBox="0 0 594.09 405.96">
  <defs>
    <style>
      .cls-1 {
        fill: url(#Degradado_sin_nombre_3-3);
      }

      .cls-2 {
        fill: url(#Degradado_sin_nombre_3-12);
      }

      .cls-3 {
        fill: url(#Degradado_sin_nombre_3-5);
      }

      .cls-4 {
        fill: url(#Degradado_sin_nombre_3-2);
      }

      .cls-5 {
        fill: url(#Degradado_sin_nombre_3-9);
      }

      .cls-6 {
        fill: url(#Degradado_sin_nombre_3-11);
      }

      .cls-7 {
        fill: url(#Degradado_sin_nombre_3-13);
      }

      .cls-8 {
        fill: url(#Degradado_sin_nombre_3-6);
      }

      .cls-9 {
        fill: url(#Degradado_sin_nombre_3);
      }

      .cls-10 {
        fill: url(#Degradado_sin_nombre_3-7);
      }

      .cls-11 {
        fill: url(#Degradado_sin_nombre_3-10);
      }

      .cls-12 {
        fill: #ebebeb;
      }

      .cls-13 {
        fill: url(#Degradado_sin_nombre_3-4);
      }

      .cls-14 {
        fill: url(#Degradado_sin_nombre_3-8);
      }
    </style>
    <linearGradient id="Degradado_sin_nombre_3" data-name="Degradado sin nombre 3" x1="778.07" y1="271.25" x2="271.91" y2="202.33" gradientUnits="userSpaceOnUse">
      <stop offset="0" stop-color="#151515"/>
      <stop offset=".68" stop-color="#2fc5ff"/>
      <stop offset="1" stop-color="#0395ff"/>
    </linearGradient>
    <linearGradient id="Degradado_sin_nombre_3-2" data-name="Degradado sin nombre 3" x1="325.05" y1="344.61" x2="204.87" y2="328.25" xlink:href="#Degradado_sin_nombre_3"/>
    <linearGradient id="Degradado_sin_nombre_3-3" data-name="Degradado sin nombre 3" x1="426.23" y1="196.62" x2="219.63" y2="168.49" xlink:href="#Degradado_sin_nombre_3"/>
    <linearGradient id="Degradado_sin_nombre_3-4" data-name="Degradado sin nombre 3" x1="498.79" y1="42.07" x2="272.84" y2="11.3" xlink:href="#Degradado_sin_nombre_3"/>
    <linearGradient id="Degradado_sin_nombre_3-5" data-name="Degradado sin nombre 3" x1="403.27" y1="344.61" x2="283.09" y2="328.25" xlink:href="#Degradado_sin_nombre_3"/>
    <linearGradient id="Degradado_sin_nombre_3-6" data-name="Degradado sin nombre 3" x1="616.12" y1="42.07" x2="390.18" y2="11.3" xlink:href="#Degradado_sin_nombre_3"/>
    <linearGradient id="Degradado_sin_nombre_3-7" data-name="Degradado sin nombre 3" x1="520.6" y1="344.61" x2="400.43" y2="328.25" xlink:href="#Degradado_sin_nombre_3"/>
    <linearGradient id="Degradado_sin_nombre_3-8" data-name="Degradado sin nombre 3" x1="559.71" y1="305.5" x2="439.54" y2="289.14" xlink:href="#Degradado_sin_nombre_3"/>
    <linearGradient id="Degradado_sin_nombre_3-9" data-name="Degradado sin nombre 3" x1="101.7" y1="78.22" x2="140.81" y2="78.22" xlink:href="#Degradado_sin_nombre_3"/>
    <linearGradient id="Degradado_sin_nombre_3-10" data-name="Degradado sin nombre 3" x1="140.81" y1="19.56" x2="258.14" y2="19.56" xlink:href="#Degradado_sin_nombre_3"/>
    <linearGradient id="Degradado_sin_nombre_3-11" data-name="Degradado sin nombre 3" x1="140.81" y1="136.89" x2="179.92" y2="136.89" xlink:href="#Degradado_sin_nombre_3"/>
    <linearGradient id="Degradado_sin_nombre_3-12" data-name="Degradado sin nombre 3" x1="140.81" y1="195.55" x2="219.03" y2="195.55" xlink:href="#Degradado_sin_nombre_3"/>
    <linearGradient id="Degradado_sin_nombre_3-13" data-name="Degradado sin nombre 3" x1="309.23" y1="176.42" x2="433.71" y2="176.42" xlink:href="#Degradado_sin_nombre_3"/>
  </defs>
  <path class="cls-9" d="M515.87,165.32h39.11v39.11h-39.11v-39.11ZM554.98,126.21h39.11v39.11h-39.11v-39.11ZM554.98,321.76h39.11v39.11h-39.11v-39.11Z"/>
  <rect class="cls-4" x="219.18" y="313.3" width="39.11" height="39.11"/>
  <rect class="cls-1" x="258.29" y="39.53" width="39.11" height="273.77"/>
  <rect class="cls-13" x="297.4" y=".42" width="78.22" height="39.11"/>
  <rect class="cls-3" x="297.4" y="313.3" width="39.11" height="39.11"/>
  <rect class="cls-8" x="414.73" y=".42" width="78.22" height="39.11"/>
  <rect class="cls-10" x="414.73" y="313.3" width="39.11" height="39.11"/>
  <rect class="cls-14" x="453.84" y="274.19" width="39.11" height="39.11"/>
  <path class="cls-12" d="M216.88,405.96l-22.19-84.74h-96.34l-21.69,84.74H0L95.33,53.9h106.93l95.33,352.06h-80.7ZM148.79,127.03h-4.03l-34.3,133.16h72.63l-34.3-133.16Z"/>
  <path class="cls-12" d="M337.43,347.45h60.02v-143.24h-60.02v-58.51h134.67v73.64h3.53c2.35-9.41,5.63-18.58,9.84-27.49,4.2-8.91,9.58-16.81,16.14-23.71,6.56-6.89,14.54-12.36,23.96-16.39,9.41-4.03,20.51-6.05,33.29-6.05h24.72v68.6h-55.48c-18.5,0-32.45,5.45-41.86,16.33-9.42,10.89-14.12,24.2-14.12,39.95v76.88h85.74v58.51h-220.41v-58.51Z"/>
  <g>
    <rect class="cls-5" x="101.7" y="39.11" width="39.11" height="78.22"/>
    <rect class="cls-11" x="140.81" width="117.33" height="39.11"/>
    <rect class="cls-6" x="140.81" y="117.33" width="39.11" height="39.11"/>
    <polygon class="cls-2" points="140.81 195.55 179.92 195.55 179.92 156.44 219.03 156.44 219.03 234.66 140.81 234.66 140.81 195.55"/>
  </g>
  <polygon class="cls-7" points="336.51 274.19 375.62 274.19 375.62 39.53 414.73 39.53 414.73 313.3 336.51 313.3 336.51 274.19"/>
</svg>